<?xml version="1.0" encoding="UTF-8"?>
<svg width="256px" height="256px" viewBox="0 0 256 256" version="1.1" xmlns="http://www.w3.org/2000/svg" xmlns:xlink="http://www.w3.org/1999/xlink">
    <title>favicon</title>
    <g id="favicon" stroke="none" stroke-width="1" fill="none" fill-rule="evenodd">
        <rect id="Rectangle" stroke="#000000" stroke-width="11.5384615" x="28" y="28" width="200" height="200" rx="38.4615385"></rect>
        <path d="M162.18569,59.1736814 L163.243356,58.7692308 L166.66866,68.4944376 L166.035742,68.7422993 C165.672332,68.884617 165.316267,69.0290329 164.967471,69.1756477 L164.279554,69.4718389 C155.235985,73.4609399 151.327256,79.0613571 151.141219,88.1807016 L151.135985,88.5243302 L151.134203,88.876685 L151.134016,95.6848172 L151.470843,95.7261313 C161.741822,97.0076094 171.128104,99.2481933 179.171113,102.327231 L179.921196,102.618344 L180.641611,102.905571 C180.95457,103.030145 181.264723,103.155752 181.572057,103.282381 L182.485592,103.665326 C183.08896,103.922654 183.681002,104.184028 184.261613,104.449363 L185.123944,104.850327 C185.55081,105.052283 185.971217,105.256443 186.385122,105.462771 L187.204249,105.878307 C198.685361,111.805703 204.923077,119.453908 204.923077,127.998619 C204.923077,137.045959 197.929928,145.088221 185.122928,151.147313 L184.260529,151.548304 C183.099212,152.079012 181.892166,152.593879 180.640219,153.092218 C172.372315,156.361385 162.824312,158.753156 152.484953,160.137036 L151.513334,160.263818 L151.134016,160.310261 L151.134203,167.120552 C151.134203,181.303256 144.524667,190.958357 131.051904,196.493564 L130.641538,196.660036 L130.222759,196.825633 L129.17139,197.230769 L125.745113,187.502799 L126.378032,187.254938 C136.674656,183.222603 141.07489,177.505839 141.272554,167.816536 L141.277788,167.472907 L141.279571,167.120552 L141.279561,161.207177 L140.462193,161.271314 C137.369774,161.498354 134.277332,161.640255 131.184878,161.697015 L129.63865,161.7183 L128.09242,161.725395 C124.250132,161.725395 120.329132,161.594131 116.62282,161.339538 L115.395736,161.250117 L114.904569,161.209723 L114.90527,167.120552 C114.90527,181.242902 108.180941,190.932866 94.6421205,196.492123 L94.2297673,196.659322 L93.8090132,196.825643 L92.7576066,197.230769 L89.3313393,187.502799 L89.9642577,187.254938 C100.260882,183.222603 104.661116,177.505839 104.85878,167.816536 L104.864014,167.472907 L104.865797,167.120552 L104.86555,160.311959 L104.529157,160.271106 C94.2581775,158.989627 84.8718953,156.749044 76.8288864,153.670006 L76.0788038,153.378893 L74.894366,152.905312 L73.9785882,152.527622 L73.0792457,152.143357 C58.9702628,146.007581 51.0769231,137.432991 51.0769231,127.998619 C51.0769231,120.351811 56.2624756,113.26984 65.7408803,107.593254 L66.4881302,107.153781 C67.8739598,106.353351 69.3469256,105.582047 70.9044247,104.842321 L71.7623375,104.441981 C72.9173575,103.912408 74.1168391,103.399773 75.3597811,102.905019 C83.6276847,99.6358526 93.1756881,97.2440814 103.515047,95.8602011 L104.486666,95.7334192 L104.86555,95.6856658 L104.865797,88.876685 C104.865797,74.6620338 111.506041,65.0244983 125.121283,59.501896 L125.536002,59.3358035 L125.959246,59.1705877 L127.014426,58.7692308 L130.439728,68.4944376 L129.80681,68.7422993 C119.510185,72.7746335 115.109951,78.4913981 114.912287,88.1807016 L114.907053,88.5243302 L114.90527,88.876685 L114.904569,94.7895987 L115.722649,94.7259231 C118.815067,94.4988833 121.907509,94.3569824 124.999963,94.300222 L126.546191,94.2789368 L128.09242,94.2718417 C131.934709,94.2718417 135.855709,94.4031057 139.562022,94.657699 L140.789105,94.7471203 L141.279561,94.787053 L141.279571,88.876685 C141.279571,74.5517761 148.021836,64.8461327 161.767025,59.3392712 L162.18569,59.1736814 Z M128.09242,104.664624 C124.175013,104.664624 120.381549,104.791874 116.713988,105.046169 L115.496134,105.135639 L114.904569,105.183468 L114.904569,150.813308 L115.296608,150.845734 C119.034134,151.139349 123.047464,151.303783 127.012491,151.32915 L128.09242,151.332613 C132.009828,151.332613 135.803292,151.205363 139.470853,150.951068 L140.688707,150.861598 L141.279561,150.812459 L141.279561,105.183468 L140.888234,105.151503 C137.150707,104.857888 133.137377,104.693454 129.17235,104.668087 L128.09242,104.664624 Z M104.86555,149.897724 L104.86555,106.098203 L104.749094,106.115046 C95.1152898,107.464586 86.2540281,109.702634 78.9796332,112.633525 L78.5691327,112.798973 L77.7607748,113.133112 C77.227516,113.357286 76.7055871,113.584251 76.1952079,113.81379 L75.4383287,114.16 C75.313635,114.218015 75.18967,114.276183 75.0664373,114.334502 L74.3358537,114.686195 C74.0952728,114.804011 73.857648,114.922401 73.6230067,115.041339 L72.9280611,115.399769 L72.2511817,115.761321 C71.138196,116.366418 70.101173,116.983842 69.1435469,117.610177 L68.5785263,117.987021 C68.4859532,118.049997 68.3941811,118.113055 68.3032132,118.176193 L67.7670845,118.555937 C63.4679677,121.664463 61.1163959,124.945952 61.1163959,127.998619 C61.1163959,130.802088 63.0997082,133.798546 66.7528423,136.676571 L67.2497946,137.059578 C67.4187254,137.186995 67.5909271,137.314151 67.7663722,137.441018 L68.30241,137.820726 C68.3933622,137.883857 68.4851183,137.946909 68.5776749,138.009879 L69.1425935,138.386682 C69.6213183,138.699814 70.1198842,139.010716 70.637861,139.318959 L71.268723,139.687548 C71.4820978,139.809967 71.6985507,139.931934 71.9180544,140.053421 L72.5856901,140.416413 L73.271465,140.776362 C73.5030615,140.895819 73.7376536,141.014742 73.9752139,141.133102 L74.6967718,141.486471 C74.8185064,141.545075 74.940976,141.603532 75.0641774,141.661839 L75.8121391,142.009841 C75.9382536,142.067531 76.065093,142.125063 76.1926537,142.182435 L76.9666476,142.524702 L77.7577897,142.862941 C77.8910667,142.91897 78.0250511,142.974823 78.1597399,143.030499 L78.976295,143.362388 C86.2750768,146.23309 94.6515729,148.395442 103.752076,149.738656 L104.86555,149.897724 Z M151.321374,106.125014 L151.134016,106.099051 L151.134016,149.897724 L151.250906,149.882191 C160.592776,148.573547 169.208216,146.429426 176.354709,143.628242 L177.430867,143.198264 L178.239225,142.864125 L179.030588,142.525798 C179.161057,142.46907 179.29081,142.412175 179.419845,142.355115 L180.185407,142.010814 L180.933562,141.662735 C181.180028,141.546097 181.423565,141.428857 181.664146,141.311042 L182.376993,140.955898 C183.902162,140.182801 185.301274,139.386564 186.566787,138.57469 L187.141355,138.198895 L187.696787,137.821044 C192.336149,134.601032 194.883604,131.175884 194.883604,127.998619 C194.883604,124.883653 192.43507,121.530429 187.968031,118.366139 L187.422325,117.987358 C187.237211,117.861418 187.048896,117.735808 186.857406,117.610555 L186.273441,117.235894 C186.075628,117.111382 185.87467,116.987255 185.670592,116.863539 L185.049027,116.493654 C184.628448,116.247924 184.195501,116.003949 183.750405,115.76195 L183.073679,115.400459 C182.959382,115.340466 182.844333,115.280604 182.728534,115.220875 L182.024786,114.864135 C181.906005,114.804954 181.786483,114.745915 181.666222,114.687019 L180.935822,114.335398 C180.812621,114.277092 180.688687,114.218936 180.564026,114.160934 L179.807346,113.814802 C178.91442,113.413204 177.986147,113.019496 177.023705,112.634849 C169.47686,109.666581 160.779879,107.45636 151.321374,106.125014 Z" id="newton" fill="#000000" fill-rule="nonzero"></path>
    </g>
</svg>