<?xml version="1.0" encoding="UTF-8"?>
<svg width="110px" height="32px" viewBox="0 0 110 32" version="1.1" xmlns="http://www.w3.org/2000/svg" xmlns:xlink="http://www.w3.org/1999/xlink">
    <title>logo</title>
    <g id="logo" stroke="none" stroke-width="1" fill="none" fill-rule="evenodd">
        <rect id="Rectangle" stroke="#000000" stroke-width="1.5" x="4" y="3" width="26" height="26" rx="5"></rect>
        <path d="M21.4441397,7.05257859 L21.5816363,7 L22.0269258,8.26427688 L21.9446464,8.29649891 C21.8974032,8.31500021 21.8511147,8.33377427 21.8057713,8.3528342 L21.7163421,8.39133905 C20.540678,8.90992218 20.0325433,9.63797642 20.0083585,10.8234912 L20.0076781,10.8681629 L20.0074463,10.9139691 L20.007422,11.7990262 L20.0512095,11.8043971 C21.3864369,11.9709892 22.6066536,12.2622651 23.6522447,12.6625401 L23.7497554,12.7003847 L23.8434095,12.7377243 C23.8840941,12.7539189 23.924414,12.7702478 23.9643674,12.7867096 L24.0831269,12.8364924 C24.1615648,12.869945 24.2385302,12.9039236 24.3140096,12.9384173 L24.4261127,12.9905425 C24.4816053,13.0167968 24.5362583,13.0433376 24.5900659,13.0701603 L24.6965524,13.1241799 C26.1890969,13.8947414 27,14.889008 27,15.9998204 C27,17.1759747 26.0908907,18.2214687 24.4259807,19.0091507 L24.3138687,19.0612795 C24.1628975,19.1302716 24.0059816,19.1972043 23.8432284,19.2619883 C22.7684009,19.68698 21.5271605,19.9979102 20.1830439,20.1778147 L20.0567335,20.1942963 L20.007422,20.200334 L20.0074463,21.0856718 C20.0074463,22.9294232 19.1482068,24.1845865 17.3967476,24.9041633 L17.3433999,24.9258047 L17.2889587,24.9473323 L17.1522808,25 L16.7068647,23.7353639 L16.7891441,23.7031419 C18.1277053,23.1789384 18.6997357,22.435759 18.725432,21.1761496 L18.7261124,21.1314779 L18.7263443,21.0856718 L18.7263429,20.316933 L18.620085,20.3252708 C18.2180706,20.354786 17.8160532,20.3732331 17.4140342,20.380612 L17.2130245,20.383379 L17.0120147,20.3843013 C16.5125171,20.3843013 16.0027871,20.3672371 15.5209666,20.3341399 L15.3614457,20.3225152 L15.297594,20.317264 L15.2976851,21.0856718 C15.2976851,22.9215772 14.4235223,24.1812726 12.6634757,24.903976 L12.6098698,24.9257119 L12.5551717,24.9473336 L12.4184889,25 L11.9730741,23.7353639 L12.0553535,23.7031419 C13.3939147,23.1789384 13.9659451,22.435759 13.9916414,21.1761496 L13.9923219,21.1314779 L13.9925536,21.0856718 L13.9925215,20.2005546 L13.9487904,20.1952438 C12.6135631,20.0286516 11.3933464,19.7373757 10.3477552,19.3371007 L10.2502445,19.2992561 L10.0962676,19.2376906 L9.97721647,19.1885908 L9.86030194,19.1386364 C8.02613416,18.3409856 7,17.2262889 7,15.9998204 C7,15.0057354 7.67412182,14.0850792 8.90631444,13.347123 L9.00345692,13.2899916 C9.18361478,13.1859356 9.37510033,13.0856662 9.57757521,12.9895018 L9.68910388,12.9374575 C9.83925647,12.8686131 9.99518908,12.8019705 10.1567715,12.7376525 C11.231599,12.3126608 12.4728394,12.0017306 13.8169561,11.8218261 L13.9432665,11.8053445 L13.9925215,11.7991365 L13.9925536,10.9139691 C13.9925536,9.06606439 14.8557853,7.81318478 16.6257668,7.09524648 L16.6796802,7.07365445 L16.734702,7.05217641 L16.8718754,7 L17.3171646,8.26427688 L17.2348853,8.29649891 C15.8963241,8.82070236 15.3242936,9.56388175 15.2985973,10.8234912 L15.2979169,10.8681629 L15.2976851,10.9139691 L15.297594,11.6826478 L15.4039444,11.67437 C15.8059587,11.6448548 16.2079761,11.6264077 16.6099952,11.6190289 L16.8110048,11.6162618 L17.0120147,11.6153394 C17.5115122,11.6153394 18.0212422,11.6324037 18.5030628,11.6655009 L18.6625836,11.6771256 L18.7263429,11.6823169 L18.7263443,10.9139691 C18.7263443,9.0517309 19.6028387,7.78999724 21.3897133,7.07410526 L21.4441397,7.05257859 Z M17.0120147,12.9664011 C16.5027517,12.9664011 16.0096013,12.9829436 15.5328185,13.0160019 L15.3744974,13.027633 L15.297594,13.0338508 L15.297594,18.96573 L15.348559,18.9699454 C15.8344374,19.0081154 16.3561703,19.0294918 16.8716238,19.0327895 L17.0120147,19.0332397 C17.5212776,19.0332397 18.014428,19.0166972 18.4912109,18.9836389 L18.6495319,18.9720077 L18.7263429,18.9656197 L18.7263429,13.0338508 L18.6754704,13.0296954 C18.189592,12.9915255 17.6678591,12.970149 17.1524056,12.9668513 L17.0120147,12.9664011 Z M13.9925215,18.8467042 L13.9925215,13.1527664 L13.9773822,13.154956 C12.7249877,13.3303961 11.5730237,13.6213425 10.6273523,14.0023583 L10.5739872,14.0238665 L10.4689007,14.0673046 C10.3995771,14.0964471 10.3317263,14.1259526 10.265377,14.1557927 L10.1669827,14.2008001 C10.1507725,14.2083419 10.1346571,14.2159038 10.1186368,14.2234853 L10.023661,14.2692054 C9.99238547,14.2845214 9.96149424,14.2999121 9.93099087,14.3153741 L9.84064794,14.3619699 L9.75265362,14.4089717 C9.60796548,14.4876343 9.47315249,14.5678995 9.34866109,14.649323 L9.27520842,14.6983127 C9.26317392,14.7064996 9.25124354,14.7146972 9.23941771,14.7229051 L9.16972099,14.7722718 C8.61083579,15.1763801 8.30513147,15.6029738 8.30513147,15.9998204 C8.30513147,16.3642714 8.56296207,16.753811 9.0378695,17.1279542 L9.1024733,17.1777451 C9.1244343,17.1943093 9.14682053,17.2108396 9.16962839,17.2273323 L9.23931331,17.2766943 C9.25113709,17.2849014 9.26306538,17.2930982 9.27509774,17.3012843 L9.34853715,17.3502686 C9.41077138,17.3909759 9.47558494,17.4313931 9.54292193,17.4714647 L9.62493399,17.5193812 C9.65267271,17.5352958 9.6808116,17.5511514 9.70934707,17.5669447 L9.79613972,17.6141337 L9.88529045,17.6609271 C9.915398,17.6764565 9.94589497,17.6919164 9.97677781,17.7073033 L10.0705803,17.7532412 C10.0864058,17.7608598 10.1023269,17.7684592 10.1183431,17.7760391 L10.2155781,17.8212794 C10.231973,17.8287791 10.2484621,17.8362582 10.265045,17.8437165 L10.3656642,17.8882113 L10.4685127,17.9321824 C10.4858387,17.9394661 10.5032566,17.9467271 10.5207662,17.9539649 L10.6269184,17.9971105 C11.57576,18.3703017 12.6647045,18.6514074 13.8477699,18.8260253 L13.9925215,18.8467042 Z M20.0317787,13.1562518 L20.007422,13.1528767 L20.007422,18.8467042 L20.0226178,18.8446848 C21.2370609,18.6745611 22.3570681,18.3958254 23.2861122,18.0316715 L23.4260127,17.9757743 L23.5310992,17.9323362 L23.6339764,17.8883537 C23.6509374,17.8809791 23.6678053,17.8735827 23.6845799,17.866165 L23.7841029,17.8214058 L23.8813631,17.7761555 C23.9134036,17.7609926 23.9450635,17.7457514 23.976339,17.7304354 L24.0690091,17.6842668 C24.267281,17.5837642 24.4491656,17.4802533 24.6136823,17.3747097 L24.6883762,17.3258564 L24.7605823,17.2767357 C25.3636994,16.8581342 25.6948685,16.4128649 25.6948685,15.9998204 C25.6948685,15.5948748 25.3765591,15.1589558 24.795844,14.747598 L24.7249022,14.6983565 C24.7008375,14.6819844 24.6763565,14.6656551 24.6514628,14.6493722 L24.5755473,14.6006663 C24.5498317,14.5844797 24.5237071,14.5683432 24.4971769,14.5522601 L24.4163735,14.504175 C24.3616982,14.4722301 24.3054151,14.4405134 24.2475527,14.4090535 L24.1595783,14.3620596 C24.1447196,14.3542606 24.1297633,14.3464785 24.1147095,14.3387138 L24.0232222,14.2923375 C24.0077807,14.2846441 23.9922428,14.2769689 23.9766089,14.2693124 L23.8816569,14.2236017 C23.8656407,14.2160219 23.8495293,14.2084617 23.8333234,14.2009215 L23.734955,14.1559243 C23.6188747,14.1037166 23.4981991,14.0525344 23.3730816,14.0025303 C22.3919918,13.6166555 21.2613842,13.3293269 20.0317787,13.1562518 Z" id="newton" fill="#000000" fill-rule="nonzero"></path>
        <path d="M35.684,28 L35.684,24.108 C35.684,22.372 36.734,21.266 38.456,21.266 C39.94,21.266 40.822,22.134 40.822,23.786 L40.822,28 L41.522,28 L41.522,23.73 C41.522,21.686 40.332,20.636 38.554,20.636 C37.168,20.636 36.146,21.252 35.656,22.274 L35.656,20.692 L34.984,20.692 L34.984,28 L35.684,28 Z M47.388,28.056 C48.494,28.056 49.502,27.65 50.146,26.866 L49.74,26.404 C49.18,27.09 48.326,27.426 47.402,27.426 C45.652,27.426 44.378,26.25 44.308,24.514 L50.594,24.514 C50.594,24.444 50.608,24.374 50.608,24.318 C50.608,22.148 49.124,20.636 47.122,20.636 C45.12,20.636 43.622,22.176 43.622,24.346 C43.622,26.516 45.176,28.056 47.388,28.056 Z M49.922,23.968 L44.322,23.968 C44.434,22.372 45.568,21.252 47.122,21.252 C48.676,21.252 49.824,22.386 49.922,23.968 Z M54.71,28 L57.188,21.658 L59.652,28 L60.31,28 L63.082,20.692 L62.438,20.692 L59.974,27.202 L57.496,20.692 L56.894,20.692 L54.402,27.216 L51.966,20.692 L51.294,20.692 L54.066,28 L54.71,28 Z M67.31,28.056 C68.626,28.056 69.732,27.412 70.306,26.278 L70.306,28 L70.992,28 L70.992,17.612 L70.292,17.612 L70.292,22.386 C69.704,21.28 68.612,20.636 67.31,20.636 C65.252,20.636 63.698,22.148 63.698,24.346 C63.698,26.53 65.252,28.056 67.31,28.056 Z M67.352,27.426 C65.672,27.426 64.412,26.18 64.412,24.346 C64.412,22.512 65.672,21.266 67.352,21.266 C69.032,21.266 70.292,22.512 70.292,24.346 C70.292,26.18 69.032,27.426 67.352,27.426 Z M76.802,28.056 C78.902,28.056 80.456,26.516 80.456,24.346 C80.456,22.176 78.902,20.636 76.802,20.636 C74.702,20.636 73.148,22.176 73.148,24.346 C73.148,26.516 74.702,28.056 76.802,28.056 Z M76.802,27.426 C75.122,27.426 73.862,26.18 73.862,24.346 C73.862,22.512 75.122,21.266 76.802,21.266 C78.482,21.266 79.742,22.512 79.742,24.346 C79.742,26.18 78.482,27.426 76.802,27.426 Z M85.524,28.056 C86.686,28.056 87.694,27.594 88.296,26.712 L87.778,26.334 C87.246,27.076 86.434,27.426 85.524,27.426 C83.802,27.426 82.542,26.194 82.542,24.346 C82.542,22.498 83.802,21.266 85.524,21.266 C86.434,21.266 87.246,21.616 87.778,22.358 L88.296,21.98 C87.694,21.084 86.686,20.636 85.524,20.636 C83.382,20.636 81.828,22.162 81.828,24.346 C81.828,26.516 83.382,28.056 85.524,28.056 Z M92.244,28.056 C94.106,28.056 95.128,27.244 95.128,26.054 C95.128,23.268 90.284,24.822 90.284,22.624 C90.284,21.84 90.914,21.252 92.342,21.252 C93.126,21.252 93.924,21.462 94.54,21.91 L94.862,21.35 C94.288,20.916 93.28,20.636 92.356,20.636 C90.508,20.636 89.584,21.532 89.584,22.638 C89.584,25.508 94.428,23.94 94.428,26.068 C94.428,26.894 93.812,27.44 92.272,27.44 C91.194,27.44 90.2,27.034 89.64,26.558 L89.318,27.118 C89.892,27.65 91.04,28.056 92.244,28.056 Z" id="newdocs" fill="#000000" fill-rule="nonzero"></path>
        <g id="newton" transform="translate(35.000000, 2.000000)" fill="#131313" fill-rule="nonzero">
            <path d="M66.1588015,3.09213484 C64.7093633,3.09213484 63.4531835,3.5752809 62.5513109,4.41273408 L62.5513109,3.09213484 L61.0374532,2.54456929 L61.0374532,13.9146067 L62.5513109,13.9146067 L62.5513109,7.89138577 C62.5513109,5.92659176 64.0651685,4.5093633 66.1588015,4.5093633 C68.2524344,4.5093633 69.7662922,5.92659176 69.7662922,7.89138577 L69.7662922,13.882397 L71.2801498,13.882397 L71.2801498,7.89138577 C71.2801498,5.12134831 69.1220974,3.09213484 66.1588015,3.09213484 Z" id="Path"></path>
            <path d="M53.8224719,3.09213484 C50.4726592,3.09213484 48.0569288,5.37902622 48.0569288,8.50337078 C48.0569288,11.6277153 50.4726592,13.9146067 53.8224719,13.9146067 C57.1722846,13.9146067 59.588015,11.6277153 59.588015,8.50337078 C59.588015,5.37902622 57.1722846,3.09213484 53.8224719,3.09213484 Z M53.8224719,12.4651686 C51.3423221,12.4651686 49.5707866,10.7902622 49.5707866,8.50337078 C49.5707866,6.2164794 51.3745319,4.54157303 53.8224719,4.54157303 C56.3026217,4.54157303 58.0741573,6.2164794 58.0741573,8.50337078 C58.0741573,10.7902622 56.270412,12.4651686 53.8224719,12.4651686 Z" id="Shape"></path>
            <path d="M47.4771535,4.44494382 L47.9602997,3.09213484 L43.7408239,3.09213484 L43.7408239,0.547565544 L42.2269663,6.82121026e-14 L42.2269663,3.09213484 L40.6808989,3.09213484 L40.1977528,4.44494382 L42.2269663,4.44494382 L42.2269663,9.69513104 C42.2269663,12.2074906 43.6441948,13.9146067 46.3820225,13.9146067 C46.8973783,13.9146067 47.4449438,13.8501873 47.9602997,13.6891386 L47.4449438,12.2719101 C47.1228464,12.3685393 46.7363296,12.4007491 46.3820225,12.4007491 C44.6104868,12.4007491 43.7408239,11.4988764 43.7408239,9.69513104 L43.7408239,4.44494382 L47.4771535,4.44494382 Z" id="Path"></path>
            <polygon id="Path" points="34.528839 11.0479401 31.6299625 3.09213484 30.8569289 3.09213484 27.9902622 11.0479401 25.0913857 3.09213484 23.4486892 3.09213484 27.3782772 13.9146067 28.6022472 13.9146067 31.2434456 6.57078652 33.9168539 13.9146067 35.140824 13.9146067 39.0382022 3.09213484 37.3955056 3.09213484"></polygon>
            <path d="M17.6509363,3.09213484 C14.3011236,3.09213484 11.8853933,5.37902622 11.8853933,8.50337078 C11.8853933,11.6277153 14.3011236,13.9146067 17.6509363,13.9146067 C19.6157303,13.9146067 21.258427,13.141573 22.2891385,11.8531836 L20.7752809,11.3056179 C20.0022472,12.046442 18.9393258,12.4651686 17.6831461,12.4651686 C15.4606741,12.4651686 13.8179776,11.1445693 13.4958802,9.211985 L23.4164794,9.211985 C23.4486892,8.98651688 23.4486892,8.72883895 23.4486892,8.50337078 C23.4164794,5.37902622 21.000749,3.09213484 17.6509363,3.09213484 Z M13.4314607,7.85917603 C13.7535581,5.89438202 15.3962546,4.54157303 17.6509363,4.54157303 C19.905618,4.54157303 21.5483146,5.89438202 21.870412,7.85917603 L13.4314607,7.85917603 Z" id="Shape"></path>
            <path d="M5.12134836,3.09213484 C3.67191012,3.09213484 2.41573032,3.5752809 1.51385772,4.41273408 L1.51385772,3.09213484 L-4.68958206e-14,2.54456929 L-4.68958206e-14,13.9146067 L1.51385772,13.9146067 L1.51385772,7.89138577 C1.51385772,5.92659176 3.02771532,4.5093633 5.12134836,4.5093633 C7.21498128,4.5093633 8.728839,5.92659176 8.728839,7.89138577 L8.728839,13.882397 L10.2426966,13.882397 L10.2426966,7.89138577 C10.2426966,5.12134831 8.0846442,3.09213484 5.12134836,3.09213484 Z" id="Path"></path>
        </g>
    </g>
</svg>